<?xml version="1.0" standalone="no"?>
<!DOCTYPE svg PUBLIC "-//W3C//DTD SVG 20010904//EN"
 "http://www.w3.org/TR/2001/REC-SVG-20010904/DTD/svg10.dtd">
<svg version="1.0" xmlns="http://www.w3.org/2000/svg"
 width="256.000000pt" height="256.000000pt" viewBox="0 0 256.000000 256.000000"
 preserveAspectRatio="xMidYMid meet">

<g transform="translate(0.000000,256.000000) scale(0.100000,-0.100000)"
fill="#000000" stroke="none">
<path d="M30 2541 c-16 -31 -12 -34 18 -13 15 10 34 22 42 25 8 3 1 6 -17 6
-22 1 -36 -5 -43 -18z"/>
<path d="M73 2488 l-72 -73 0 -89 c-1 -81 0 -88 14 -70 8 10 15 24 15 30 0 15
41 59 68 73 11 6 48 11 82 11 49 0 62 3 66 18 3 9 9 24 14 34 9 17 -11 44 -23
31 -4 -3 -7 2 -7 12 0 10 -8 28 -17 39 -18 21 -18 21 3 4 21 -18 74 -25 74
-10 0 5 -13 20 -28 35 -22 21 -38 27 -73 27 -42 0 -48 -4 -116 -72z"/>
<path d="M280 2541 c9 -19 47 -38 56 -29 9 9 -29 48 -47 48 -16 0 -18 -3 -9
-19z"/>
<path d="M345 2523 c9 -20 17 -38 18 -38 1 -1 31 -10 67 -20 36 -10 73 -25 83
-34 22 -18 45 -23 53 -10 10 16 22 9 17 -10 -4 -17 0 -18 44 -13 26 2 51 9 54
14 4 6 22 -6 41 -26 36 -37 54 -44 60 -25 2 7 10 4 18 -7 9 -11 10 -15 2 -10
-18 11 -26 -18 -11 -45 12 -23 12 -23 20 -4 4 11 8 33 8 48 1 16 5 26 11 22 6
-3 10 4 10 17 0 16 -3 19 -9 10 -7 -11 -9 -11 -14 2 -3 8 -2 18 3 21 11 7 -11
67 -30 82 -24 18 -31 4 -13 -24 9 -14 17 -41 18 -59 1 -39 -14 -47 -16 -9 -1
14 -3 30 -4 35 -1 6 -3 12 -4 15 0 3 -11 1 -23 -5 -22 -11 -22 -10 -4 4 19 15
18 16 -8 43 -25 24 -28 25 -43 10 -15 -14 -15 -17 1 -32 20 -21 20 -21 -4 -21
-10 0 -17 2 -15 4 7 8 -17 61 -30 66 -8 3 -25 0 -38 -7 -24 -13 -24 -13 -6
-36 36 -44 19 -41 -22 4 -26 28 -50 45 -64 45 -12 0 -28 7 -35 15 -9 11 -32
15 -81 15 l-69 0 15 -37z"/>
<path d="M498 2553 c6 -2 18 -2 25 0 6 3 1 5 -13 5 -14 0 -19 -2 -12 -5z"/>
<path d="M605 2550 c-6 -9 23 -14 70 -12 11 0 14 -2 8 -4 -7 -3 -13 -10 -13
-15 0 -5 11 -4 25 3 18 8 28 8 39 -1 19 -16 36 -6 36 20 0 17 -7 19 -79 19
-44 0 -83 -4 -86 -10z"/>
<path d="M783 2531 c2 -14 7 -26 12 -25 13 1 41 -36 48 -61 3 -12 5 -3 7 20 1
22 4 34 7 28 7 -18 23 -16 23 2 0 24 -29 30 -46 9 -14 -18 -14 -17 -4 4 15 32
7 50 -24 50 -20 0 -24 -5 -23 -27z"/>
<path d="M878 2533 c3 -14 12 -28 22 -30 9 -3 28 -29 41 -58 20 -44 32 -57 66
-73 32 -14 43 -16 43 -7 0 23 -12 45 -24 45 -16 0 -76 59 -76 75 0 8 -8 19
-17 25 -17 10 -17 10 0 20 28 17 20 28 -21 28 -37 1 -39 -1 -34 -25z"/>
<path d="M959 2538 c-6 -11 -9 -20 -7 -21 2 -1 18 -10 36 -19 27 -14 32 -15
32 -3 0 11 5 10 20 -5 23 -23 33 -24 61 -10 13 8 19 7 19 -1 0 -6 -9 -13 -20
-16 -26 -7 -26 -30 1 -38 34 -11 72 3 66 25 -3 12 0 17 8 13 8 -2 23 5 34 16
12 12 24 21 28 21 4 0 2 -5 -5 -12 -20 -20 -14 -34 16 -34 18 1 26 -4 24 -13
-2 -11 0 -12 10 -4 7 6 28 10 46 9 17 -1 32 1 32 4 0 3 -21 30 -48 58 l-47 52
-148 -1 c-136 -1 -148 -2 -158 -21z"/>
<path d="M1308 2553 c7 -3 16 -2 19 1 4 3 -2 6 -13 5 -11 0 -14 -3 -6 -6z"/>
<path d="M1361 2539 c9 -17 13 -19 20 -8 14 22 11 29 -11 29 -18 0 -19 -3 -9
-21z"/>
<path d="M1417 2542 c-24 -14 -28 -22 -23 -49 3 -19 0 -33 -7 -36 -18 -7 41
-65 85 -84 23 -10 33 -20 26 -24 -6 -4 -18 -5 -27 -1 -9 3 -13 2 -9 -2 3 -4
12 -8 20 -9 7 -2 38 -16 68 -33 30 -17 78 -34 105 -37 28 -4 76 -21 109 -38
60 -31 79 -32 55 -3 -13 16 -12 16 8 3 12 -7 26 -25 31 -39 5 -14 21 -55 35
-92 14 -38 22 -68 17 -68 -13 0 -33 30 -36 53 -1 12 -8 40 -16 62 -11 33 -18
41 -43 43 -29 4 -29 3 -12 -15 9 -11 17 -29 17 -41 0 -12 10 -30 22 -42 12
-11 16 -20 10 -20 -25 0 -10 -19 37 -50 52 -33 107 -88 155 -155 21 -29 54
-54 119 -88 49 -26 91 -46 93 -44 2 2 -17 19 -42 38 -118 87 -111 82 -84 74
14 -4 48 -24 75 -45 28 -21 68 -43 90 -50 22 -7 59 -28 82 -46 27 -23 43 -30
46 -21 8 22 -12 44 -54 61 -23 9 -39 19 -36 22 8 8 73 -22 96 -45 12 -12 21
-32 21 -46 0 -14 7 -28 15 -31 11 -5 13 -16 8 -50 -3 -27 -2 -44 4 -44 13 0
23 48 23 114 0 49 17 132 26 124 2 -2 -1 -20 -7 -39 -6 -20 -7 -68 -3 -119 l7
-85 18 50 c15 42 18 86 18 272 1 168 -2 223 -11 226 -10 4 -10 8 -2 14 7 4 12
38 12 78 l1 70 -22 -63 c-34 -95 -38 -65 -5 35 24 76 28 103 28 210 l0 123
-47 0 -48 0 -2 -41 c-2 -22 -7 -48 -13 -57 -7 -13 -9 -2 -10 41 l0 57 -84 0
-85 0 -4 -32 -4 -33 -1 33 c-2 27 -6 32 -28 32 -23 0 -25 -3 -19 -27 3 -15 15
-45 26 -67 10 -22 19 -49 18 -60 -1 -21 -1 -21 -8 -1 -23 66 -44 97 -71 106
-16 6 -32 19 -35 30 -6 18 -17 19 -160 19 -117 0 -153 -3 -151 -12 1 -7 17
-33 35 -58 81 -109 108 -214 75 -294 -11 -25 -22 -46 -25 -46 -3 0 -11 12 -18
27 -10 22 -10 25 2 15 23 -19 37 8 39 69 1 72 -43 168 -106 228 -25 25 -47 43
-49 40 -2 -2 -27 -30 -55 -62 -29 -31 -52 -61 -52 -66 0 -5 23 -34 50 -64 28
-30 50 -57 50 -60 0 -3 -7 -8 -16 -11 -9 -4 -13 -2 -8 5 4 7 0 9 -13 5 -10 -3
-39 1 -63 9 -31 10 -35 13 -15 11 17 -3 39 -8 50 -11 11 -4 2 4 -20 17 -51 30
-80 85 -70 134 4 21 23 54 47 80 l41 44 -134 0 c-109 0 -139 -4 -162 -18z
m1020 -147 c-1 -19 -6 -35 -11 -35 -5 0 -6 -23 -3 -52 6 -48 5 -50 -9 -30 -11
17 -13 30 -5 59 5 21 12 50 15 66 9 38 15 34 13 -8z m-193 -83 c-8 -87 3 -110
112 -225 46 -48 91 -102 100 -119 20 -39 31 -138 15 -138 -6 0 -11 16 -11 38
0 20 -5 44 -11 52 -8 11 -9 5 -4 -23 5 -34 2 -42 -28 -72 -26 -26 -39 -32 -57
-28 -23 6 -23 7 -3 14 29 11 35 33 34 129 l-2 84 -63 66 c-35 36 -70 79 -79
97 -17 33 -22 106 -11 162 11 52 14 35 8 -37z m199 -137 c32 -65 12 -61 -24 4
l-20 36 5 -37 c3 -22 22 -61 45 -94 22 -31 38 -62 35 -68 -3 -6 2 -2 10 8 13
16 16 16 16 5 0 -9 -3 -19 -7 -23 -4 -3 -6 -30 -5 -59 2 -38 0 -48 -8 -37 -5
8 -8 27 -5 41 4 19 -3 37 -30 72 -20 26 -40 45 -44 43 -4 -3 -13 4 -20 16 -7
11 -8 17 -2 14 7 -5 9 24 6 91 -5 81 -3 94 7 73 6 -14 25 -52 41 -85z m-413
-39 c6 -8 43 -27 81 -42 83 -33 86 -42 3 -14 -55 19 -133 69 -108 70 6 0 17
-6 24 -14z m-66 -102 c3 -8 2 -12 -4 -9 -6 3 -10 10 -10 16 0 14 7 11 14 -7z
m67 -101 c13 -16 12 -17 -3 -4 -10 7 -18 15 -18 17 0 8 8 3 21 -13z m45 -55
l29 -33 -32 29 c-31 28 -38 36 -30 36 2 0 16 -15 33 -32z m360 -66 c-18 -16
-18 -16 -6 6 6 13 14 21 18 18 3 -4 -2 -14 -12 -24z m-2 -58 c5 -14 4 -15 -9
-4 -17 14 -19 20 -6 20 5 0 12 -7 15 -16z"/>
<path d="M1686 2516 c-38 -46 -46 -69 -22 -60 11 4 13 0 9 -18 -2 -13 9 1 27
31 17 29 40 56 51 58 27 8 24 33 -5 33 -16 0 -35 -14 -60 -44z"/>
<path d="M2150 2552 c0 -14 23 -32 41 -32 12 0 16 6 12 20 -3 13 -14 20 -29
20 -13 0 -24 -4 -24 -8z"/>
<path d="M972 2475 c11 -26 23 -31 32 -17 4 8 -27 42 -39 42 -2 0 1 -11 7 -25z"/>
<path d="M871 2471 c-10 -7 -11 -13 -2 -27 10 -18 10 -18 11 3 0 17 4 20 22
15 14 -3 19 -2 14 6 -8 14 -26 15 -45 3z"/>
<path d="M904 2398 c4 -36 3 -47 -3 -33 -12 25 -13 -1 -2 -30 7 -18 9 -17 24
12 26 49 20 103 -10 103 -12 0 -14 -10 -9 -52z"/>
<path d="M1000 2441 c0 -16 28 -20 40 -5 10 12 8 14 -14 14 -14 0 -26 -4 -26
-9z"/>
<path d="M312 2430 c-12 -5 -25 -18 -29 -27 -11 -29 -30 -43 -56 -43 -14 0
-33 -3 -41 -6 -14 -5 -14 -9 -4 -22 12 -13 11 -14 -8 -2 -33 20 -71 4 -125
-52 l-49 -51 0 -114 c0 -112 1 -114 28 -138 22 -20 38 -24 85 -25 39 0 57 4
57 13 0 8 4 7 10 -3 5 -8 10 -30 10 -48 0 -23 10 -43 34 -69 33 -37 34 -37 76
-24 23 7 44 11 46 8 2 -2 -14 -9 -36 -16 l-40 -12 0 -79 c0 -89 4 -94 77 -106
31 -5 55 1 114 25 109 46 104 36 68 129 -17 45 -35 84 -40 87 -4 3 -34 -2 -64
-11 -31 -9 -58 -14 -61 -11 -2 2 25 12 61 22 64 17 66 18 90 71 36 78 40 100
20 108 -9 3 -21 4 -26 0 -5 -3 -9 1 -10 8 -1 17 -6 41 -13 64 -6 23 23 67 31
45 3 -7 14 -21 24 -29 11 -9 19 -24 19 -34 0 -10 5 -18 10 -18 6 0 10 -9 10
-20 0 -11 12 -26 29 -34 39 -21 91 -82 91 -108 0 -21 0 -21 14 -2 10 13 13 39
11 89 l-4 70 12 -68 12 -69 57 57 58 56 -16 37 c-8 20 -21 40 -28 44 -8 4 -11
18 -9 32 3 13 0 34 -7 46 l-12 22 -12 -23 c-11 -20 -10 -27 3 -43 16 -18 15
-18 -16 -2 -40 20 -43 20 -44 -1 0 -14 -2 -14 -9 4 -5 12 -17 24 -28 27 -11 4
-22 18 -24 31 -6 29 -1 35 24 35 43 0 -3 74 -55 88 -53 15 -127 -27 -127 -71
0 -18 -5 -19 -44 -14 l-45 6 17 -29 c11 -19 25 -30 39 -30 12 0 25 -5 28 -10
4 -6 11 -7 17 -4 7 4 8 2 4 -5 -6 -9 -11 -9 -21 -1 -8 6 -26 10 -42 8 -24 -3
-28 -8 -29 -35 -1 -39 -20 -64 -41 -56 -9 4 -13 14 -10 29 5 27 -5 31 -27 9
-8 -8 -21 -15 -28 -15 -8 1 -5 8 8 19 19 15 20 19 6 27 -12 8 -7 9 20 6 40 -4
78 11 78 33 0 8 -16 32 -35 54 -35 38 -48 64 -21 42 15 -13 32 1 22 18 -11 17
18 18 63 3 40 -14 45 -14 57 2 7 10 16 17 21 16 4 -1 9 5 11 13 4 18 -41 38
-59 26 -20 -12 -21 -12 -72 22 -39 26 -50 29 -62 19 -13 -11 -14 -10 -9 4 7
18 0 19 -34 6z"/>
<path d="M420 2411 c0 -12 48 -27 57 -17 9 8 2 13 -30 21 -17 5 -27 3 -27 -4z"/>
<path d="M1238 2393 c-10 -2 -20 -19 -24 -40 -9 -50 68 -211 106 -220 49 -11
166 -44 228 -65 35 -11 84 -20 110 -20 33 1 43 -1 32 -8 -11 -7 -7 -10 17 -10
18 0 47 -9 65 -20 37 -22 48 -25 48 -10 0 5 -17 17 -37 26 -21 9 -33 18 -26
21 11 4 28 -4 108 -52 43 -27 60 -31 49 -14 -3 6 -27 20 -51 31 -47 21 -77 68
-71 111 2 15 -12 32 -48 62 -41 34 -67 46 -127 59 -55 12 -95 30 -144 62 -112
74 -186 101 -235 87z"/>
<path d="M606 2378 c-17 -10 -14 -13 28 -29 38 -14 53 -15 72 -7 43 20 24 41
-41 44 -22 2 -49 -2 -59 -8z"/>
<path d="M936 2348 c-16 -43 -14 -58 10 -58 13 0 18 14 17 48 -1 6 10 12 24
12 15 0 22 4 18 11 -4 6 -14 8 -22 5 -8 -3 -12 -2 -9 3 3 5 0 11 -8 14 -9 4
-19 -8 -30 -35z"/>
<path d="M1087 2371 c5 -19 28 -21 55 -5 8 5 6 10 -8 15 -36 14 -52 10 -47
-10z"/>
<path d="M860 2346 c0 -14 5 -28 10 -31 6 -4 10 5 8 24 -3 37 -18 42 -18 7z"/>
<path d="M1141 2339 c-11 -12 -17 -28 -14 -37 4 -10 2 -13 -5 -8 -7 4 -12 16
-12 27 0 16 -4 19 -22 13 -13 -3 -25 -11 -27 -17 -2 -5 -11 -17 -21 -27 -22
-22 -8 -40 32 -40 18 0 28 -5 28 -15 0 -8 5 -15 11 -15 7 0 9 -9 5 -24 -4 -16
1 -32 15 -49 16 -21 26 -25 52 -22 18 3 26 3 19 -1 -23 -11 -3 -20 35 -15 l38
5 -30 7 -30 7 33 1 c33 1 33 1 18 29 -8 15 -25 49 -37 76 -13 28 -24 45 -27
38 -2 -7 -11 -12 -20 -12 -14 0 -15 2 -3 9 12 8 11 13 -9 29 -23 18 -23 20 -7
36 19 20 21 26 7 26 -5 0 -18 -9 -29 -21z"/>
<path d="M710 2330 c-30 -23 -18 -41 22 -33 30 6 45 32 26 45 -18 11 -20 10
-48 -12z"/>
<path d="M837 2326 c-4 -10 -5 -21 -2 -24 9 -9 17 6 13 25 -3 17 -4 17 -11 -1z"/>
<path d="M1026 2324 c-22 -21 -20 -27 4 -12 11 7 20 16 20 20 0 12 -7 10 -24
-8z"/>
<path d="M977 2308 c-7 -25 -3 -33 12 -23 13 8 15 45 2 45 -5 0 -11 -10 -14
-22z"/>
<path d="M891 2294 c0 -11 3 -14 6 -6 3 7 2 16 -1 19 -3 4 -6 -2 -5 -13z"/>
<path d="M733 2283 c-25 -10 -13 -25 14 -18 27 6 27 6 8 -14 -15 -17 -16 -24
-6 -34 9 -9 16 -7 30 12 14 18 20 21 24 10 4 -11 6 -10 6 2 2 27 -47 54 -76
42z"/>
<path d="M837 2265 c-4 -8 -2 -17 3 -20 6 -4 10 3 10 14 0 25 -6 27 -13 6z"/>
<path d="M871 2264 c0 -11 3 -14 6 -6 3 7 2 16 -1 19 -3 4 -6 -2 -5 -13z"/>
<path d="M935 2270 c4 -6 11 -8 16 -5 14 9 11 15 -7 15 -8 0 -12 -5 -9 -10z"/>
<path d="M966 2257 c-20 -15 -14 -37 9 -37 18 0 24 11 16 33 -6 15 -9 16 -25
4z"/>
<path d="M900 2241 c0 -14 5 -18 20 -14 11 3 20 7 20 9 0 2 -9 8 -20 14 -17 9
-20 8 -20 -9z"/>
<path d="M940 2208 c0 -8 6 -20 13 -28 10 -12 9 -12 -6 -1 -23 18 -25 15 -33
-50 -3 -29 -8 -58 -11 -64 -2 -5 5 1 16 14 25 27 27 21 6 -18 -13 -26 -13 -30
3 -43 15 -13 24 -10 81 28 65 43 66 48 11 57 -14 3 -5 5 20 4 25 0 55 3 68 7
34 11 9 36 -35 36 -44 0 -73 16 -73 39 0 10 -6 18 -12 18 -7 0 -21 4 -30 8
-12 5 -18 3 -18 -7z"/>
<path d="M1030 2180 c0 -5 5 -10 10 -10 6 0 10 5 10 10 0 6 -4 10 -10 10 -5 0
-10 -4 -10 -10z"/>
<path d="M1355 2100 c-4 -6 3 -10 14 -10 25 0 27 6 6 13 -8 4 -17 2 -20 -3z"/>
<path d="M1195 2055 c-36 -11 -38 -13 -18 -19 16 -5 29 -1 45 13 12 12 20 21
17 20 -2 -1 -22 -7 -44 -14z"/>
<path d="M1299 2063 c-2 -5 -21 -19 -41 -32 -21 -12 -38 -30 -38 -39 0 -9 -5
-24 -10 -32 -7 -12 -12 -12 -22 -2 -18 18 -25 15 -31 -15 -7 -38 4 -55 76
-113 l62 -50 18 22 17 23 -9 -26 c-7 -20 -4 -37 13 -75 13 -27 29 -54 37 -59
8 -6 42 -9 77 -7 56 3 62 6 57 23 -4 10 -2 26 3 35 8 15 11 14 26 -7 16 -23
16 -23 17 26 1 28 4 39 6 25 2 -14 11 -46 19 -71 13 -42 20 -49 66 -69 34 -15
61 -20 82 -16 17 4 72 8 121 11 50 2 101 7 115 10 14 3 50 6 80 6 52 -1 183
39 195 59 5 8 -76 30 -105 28 -20 -2 -140 53 -140 63 0 13 -124 69 -128 58 -2
-5 -8 -9 -13 -9 -4 0 -6 6 -3 13 3 8 -2 19 -10 26 -20 17 -54 -2 -62 -34 -6
-26 -30 -40 -40 -24 -3 6 4 21 17 35 l22 24 -26 0 c-26 0 -67 40 -67 66 0 26
-49 16 -62 -11 -7 -15 -17 -24 -25 -21 -7 3 -13 2 -14 -2 -5 -53 -20 -68 -47
-51 -27 17 -36 51 -16 62 8 4 12 12 9 18 -4 5 5 9 19 9 45 0 36 16 -18 33 -29
9 -60 17 -69 17 -10 0 -17 3 -17 8 0 11 -81 59 -111 67 -15 4 -28 3 -30 -2z
m111 -117 c0 -2 -8 -10 -17 -17 -16 -13 -17 -12 -4 4 13 16 21 21 21 13z"/>
<path d="M1470 2050 c0 -5 4 -10 9 -10 5 0 18 -3 28 -6 16 -6 16 -5 -2 9 -23
19 -35 21 -35 7z"/>
<path d="M1566 2021 c10 -11 72 -27 63 -17 -4 4 -21 11 -39 16 -20 6 -30 6
-24 1z"/>
<path d="M532 1942 l-32 -78 38 -83 38 -83 32 36 c49 56 85 134 78 168 -9 44
-43 87 -83 103 -20 8 -36 15 -37 15 0 0 -16 -35 -34 -78z"/>
<path d="M1049 1983 l-33 -38 30 -5 c27 -5 28 -6 9 -17 -19 -11 -19 -13 -4
-28 15 -16 17 -12 28 50 7 37 10 69 8 72 -2 2 -19 -13 -38 -34z"/>
<path d="M1655 2010 c3 -5 16 -10 28 -9 21 0 21 1 2 9 -28 12 -37 12 -30 0z"/>
<path d="M1100 1953 c-6 -32 -15 -73 -20 -90 -7 -29 -6 -32 9 -23 31 16 46 42
57 99 9 42 9 58 0 63 -25 17 -35 5 -46 -49z m37 -5 c-3 -7 -5 -2 -5 12 0 14 2
19 5 13 2 -7 2 -19 0 -25z"/>
<path d="M833 1950 c-37 -22 -39 -33 -17 -90 18 -44 41 -49 36 -8 -1 15 7 35
23 52 21 23 23 30 12 46 -15 24 -15 24 -54 0z"/>
<path d="M1704 1936 c-8 -21 2 -46 19 -46 10 0 13 8 9 25 -6 31 -20 42 -28 21z"/>
<path d="M1747 1938 c-7 -20 12 -48 31 -48 33 0 45 15 33 39 -13 23 -56 29
-64 9z"/>
<path d="M0 1670 l0 -270 44 0 c37 0 53 7 90 38 55 45 62 68 47 137 -14 63
-38 97 -81 115 -17 7 -29 15 -26 17 3 3 27 -7 55 -23 28 -15 49 -29 47 -32 -3
-2 2 -22 10 -44 8 -22 14 -53 14 -69 0 -38 10 -36 36 4 33 49 38 74 17 86 -10
6 -12 11 -5 11 8 0 12 22 12 78 0 77 0 78 -39 116 -22 21 -44 35 -49 32 -6 -3
-27 3 -47 15 -42 25 -53 19 -38 -21 7 -18 7 -30 2 -30 -5 0 -12 14 -16 31 -3
19 -14 34 -25 36 -10 3 -18 11 -18 18 0 7 -7 15 -15 19 -12 4 -14 -31 -15
-264z"/>
<path d="M124 1895 c19 -14 36 -12 36 6 0 5 -12 9 -27 9 -27 -1 -27 -1 -9 -15z"/>
<path d="M1990 1885 c13 -34 28 -55 41 -55 15 0 9 14 -21 50 l-30 35 10 -30z"/>
<path d="M740 1868 c-33 -54 -24 -125 15 -125 17 0 27 9 40 36 15 35 15 40 0
79 -10 23 -21 42 -26 42 -5 0 -18 -15 -29 -32z"/>
<path d="M1900 1886 c0 -3 9 -10 20 -16 11 -6 20 -8 20 -6 0 3 -9 10 -20 16
-11 6 -20 8 -20 6z"/>
<path d="M1117 1845 l-27 -33 27 -41 c14 -23 30 -41 34 -41 16 0 119 43 119
50 0 9 -109 100 -119 99 -3 0 -18 -15 -34 -34z"/>
<path d="M826 1784 c-4 -11 -1 -21 9 -26 8 -5 13 -13 10 -18 -3 -6 8 -8 26 -6
17 2 35 10 40 17 11 18 11 32 0 25 -5 -4 -11 -2 -13 4 -1 5 -17 12 -34 16 -24
5 -33 2 -38 -12z"/>
<path d="M1210 1735 l-55 -24 3 -42 c5 -54 38 -101 66 -93 16 5 95 50 125 70
2 2 -7 28 -20 58 -26 65 -36 67 -119 31z"/>
<path d="M2290 1731 c0 -7 44 -31 57 -31 3 0 0 6 -6 14 -13 16 -51 28 -51 17z"/>
<path d="M2282 1634 c-10 -18 -22 -23 -86 -31 -31 -4 -41 -11 -50 -34 -6 -16
-18 -29 -27 -29 -10 0 -26 -3 -36 -6 -17 -5 -17 -5 0 6 14 9 15 15 6 32 -10
18 -18 20 -76 15 -36 -3 -69 -10 -73 -17 -4 -7 -13 -9 -19 -6 -17 11 -14 -26
4 -51 13 -18 24 -22 58 -19 37 3 44 -1 62 -27 33 -50 113 -85 130 -57 3 6 15
10 26 10 10 0 19 5 19 11 0 6 -9 9 -20 6 -29 -7 -25 0 10 18 38 20 43 19 29
-4 -30 -48 42 -77 112 -46 21 10 39 18 40 19 0 1 2 20 5 43 10 74 -39 170 -72
142 -12 -10 -14 -8 -12 11 4 28 -17 37 -30 14z m28 -112 c-14 -2 -33 -13 -43
-25 -10 -12 -16 -16 -12 -9 4 8 -2 12 -17 13 -22 1 -21 2 5 12 27 11 37 27 16
27 -5 0 -8 4 -4 10 3 5 12 7 20 3 8 -3 15 0 15 6 0 5 10 0 23 -12 l22 -22 -25
-3z"/>
<path d="M1332 1590 c-39 -28 -60 -55 -51 -65 2 -2 21 -6 42 -10 31 -6 36 -5
31 8 -4 11 4 16 33 20 30 3 41 0 55 -17 21 -27 35 -14 19 18 -7 13 -10 33 -6
45 5 17 2 21 -17 21 -13 0 -32 3 -43 6 -13 3 -36 -6 -63 -26z"/>
<path d="M290 1600 c8 -5 24 -10 35 -10 17 0 17 2 5 10 -8 5 -24 10 -35 10
-17 0 -17 -2 -5 -10z"/>
<path d="M467 1593 c-25 -7 -48 -17 -51 -22 -5 -7 114 -65 120 -58 2 1 7 21
12 44 9 38 8 41 -13 45 -12 3 -42 -1 -68 -9z"/>
<path d="M1500 1602 c0 -5 8 -16 18 -25 19 -17 66 -17 99 1 16 9 15 11 -7 16
-59 12 -110 16 -110 8z"/>
<path d="M1255 1566 c-16 -13 -28 -26 -25 -29 3 -2 19 8 35 24 36 35 31 38
-10 5z"/>
<path d="M1476 1575 c4 -8 8 -15 10 -15 2 0 4 7 4 15 0 8 -4 15 -10 15 -5 0
-7 -7 -4 -15z"/>
<path d="M2121 1574 c0 -11 3 -14 6 -6 3 7 2 16 -1 19 -3 4 -6 -2 -5 -13z"/>
<path d="M2541 1546 c-6 -25 -11 -77 -11 -116 0 -40 -6 -86 -15 -107 -8 -19
-15 -46 -15 -59 0 -12 -4 -26 -10 -29 -15 -9 -12 48 5 88 8 20 15 49 14 64 -1
57 -47 -105 -54 -193 -11 -122 -81 -393 -128 -494 -12 -25 -23 -49 -25 -53 -2
-4 9 -5 25 -2 28 7 28 7 4 -7 -69 -38 -88 -124 -47 -206 14 -28 26 -62 26 -74
-1 -14 -8 -1 -19 30 -10 29 -22 57 -27 62 -6 6 -26 -6 -49 -29 -22 -21 -45
-36 -51 -34 -7 2 -22 -12 -34 -32 -22 -35 -73 -75 -95 -75 -5 0 9 11 31 25 23
13 47 38 54 54 6 16 25 35 41 42 62 25 79 46 79 100 0 27 7 66 15 86 20 48 13
52 -26 14 -32 -32 -34 -55 -2 -30 9 8 2 -7 -16 -34 -36 -53 -106 -124 -130
-132 -9 -3 -33 -30 -55 -61 -40 -58 -67 -75 -119 -73 -25 1 -22 3 18 11 45 8
53 14 85 61 46 68 46 69 19 65 -13 -1 -28 -13 -34 -25 -5 -13 -13 -23 -18 -23
-4 0 -3 9 3 21 14 26 8 33 -20 24 -16 -5 -20 -13 -16 -27 4 -16 2 -18 -7 -9
-16 16 -47 14 -47 -5 0 -8 4 -13 9 -9 5 3 12 1 16 -5 3 -5 -1 -10 -9 -10 -9 0
-16 -8 -16 -19 0 -10 -7 -22 -16 -25 -24 -9 -27 -7 -10 10 15 15 22 54 10 54
-3 0 -20 -11 -38 -25 -18 -14 -38 -25 -45 -25 -6 0 -23 -7 -36 -16 -14 -9 -25
-13 -25 -9 0 4 -7 2 -15 -5 -8 -6 -20 -8 -26 -4 -7 4 -9 3 -6 -3 4 -6 -2 -13
-13 -16 -11 -3 -20 -10 -20 -15 0 -13 36 -3 100 27 25 11 56 20 70 20 16 0 5
-7 -30 -18 -98 -31 -189 -82 -222 -123 -17 -21 -28 -41 -25 -44 10 -10 45 16
81 59 31 38 46 47 125 72 81 26 93 27 116 15 20 -11 31 -11 44 -3 15 10 18 9
17 -5 -1 -14 7 -17 39 -15 38 2 39 2 12 -8 -19 -8 -36 -8 -59 0 -63 22 -108 9
-108 -31 0 -10 -4 -18 -9 -18 -4 0 -6 12 -4 28 l4 27 -19 -23 c-14 -15 -22
-18 -25 -10 -3 8 -21 -3 -48 -31 -27 -27 -36 -41 -24 -36 31 11 102 18 120 11
12 -4 6 -15 -31 -51 -26 -25 -52 -45 -57 -45 -5 0 -20 -9 -34 -20 l-26 -20
452 0 451 0 0 315 c-1 219 -4 314 -11 309 -7 -4 -9 -25 -5 -53 l5 -46 -14 45
c-13 43 -21 35 -16 -17 1 -16 -2 -21 -13 -17 -21 8 -14 65 13 102 25 36 26 60
6 109 -14 33 -14 40 1 72 14 29 15 42 5 84 -6 26 -10 65 -10 85 1 29 4 22 13
-31 7 -37 16 -70 19 -74 4 -3 7 154 7 350 0 197 -2 357 -4 357 -2 0 -9 -20
-15 -44z m-15 -437 c-13 -77 -14 -80 -15 -34 -1 48 16 131 25 122 2 -2 -2 -42
-10 -88z m-40 -256 c0 -21 4 -58 8 -83 6 -34 4 -50 -8 -65 -14 -19 -15 -16 -9
30 3 28 0 68 -6 89 -7 29 -7 43 1 53 14 18 14 18 14 -24z m51 -385 c-3 -8 -6
-5 -6 6 -1 11 2 17 5 13 3 -3 4 -12 1 -19z m10 -40 c-3 -8 -6 -5 -6 6 -1 11 2
17 5 13 3 -3 4 -12 1 -19z m-583 -102 c-3 -8 -13 -17 -22 -21 -13 -5 -13 -2 3
15 21 24 26 25 19 6z m196 11 c0 -2 -10 -12 -22 -23 l-23 -19 19 23 c18 21 26
27 26 19z m39 -102 c0 -5 -6 1 -14 15 -8 14 -14 30 -14 35 0 6 6 -1 14 -15 8
-14 14 -29 14 -35z m101 15 c-9 -18 -40 -40 -55 -40 -5 0 57 59 63 60 1 0 -2
-9 -8 -20z m-80 -40 c12 -8 9 -10 -13 -10 -16 0 -26 4 -22 10 8 12 16 12 35 0z
m-335 -30 c10 -11 16 -20 13 -20 -3 0 -13 9 -23 20 -10 11 -16 20 -13 20 3 0
13 -9 23 -20z m255 -4 c-54 -36 -135 -68 -162 -63 -19 4 -18 5 7 6 17 1 62 19
100 41 79 43 107 52 55 16z m132 -28 c-11 -13 -22 -39 -25 -58 l-4 -35 -1 37
c-2 27 4 43 20 58 29 27 37 26 10 -2z m-359 -46 c-20 -6 -38 -10 -40 -8 -2 2
10 8 26 14 17 6 31 17 31 24 0 9 3 9 10 -2 7 -12 2 -18 -27 -28z m182 -51 c-3
-6 -11 -11 -16 -11 -5 0 -4 6 3 14 14 16 24 13 13 -3z m-51 -25 c-21 -15 -30
-14 -19 3 3 6 14 11 23 11 13 0 13 -2 -4 -14z"/>
<path d="M275 1570 c-3 -5 -2 -10 4 -10 5 0 13 5 16 10 3 6 2 10 -4 10 -5 0
-13 -4 -16 -10z"/>
<path d="M1820 1557 c0 -10 9 -14 25 -13 23 1 37 16 16 16 -5 0 -16 3 -25 6
-10 4 -16 1 -16 -9z"/>
<path d="M1497 1545 c-7 -18 6 -27 27 -19 13 5 14 9 5 20 -15 18 -25 18 -32
-1z"/>
<path d="M348 1540 c-10 -6 -23 -40 -34 -85 -17 -70 -17 -78 -1 -128 9 -29 23
-61 31 -72 15 -20 31 -17 79 20 15 10 86 189 87 216 0 8 -114 59 -131 59 -8 0
-21 -5 -31 -10z"/>
<path d="M2452 1520 c0 -19 2 -27 5 -17 2 9 2 25 0 35 -3 9 -5 1 -5 -18z"/>
<path d="M1561 1505 c-77 -36 -111 -64 -127 -101 -8 -19 -20 -34 -28 -34 -16
0 -29 -27 -20 -41 3 -5 37 -32 77 -59 46 -33 73 -46 78 -39 5 8 8 8 10 0 3 -8
24 -1 59 18 30 17 60 31 65 31 6 0 -16 -15 -47 -32 -32 -17 -58 -37 -58 -44 0
-7 -6 -11 -13 -8 -15 5 -97 -104 -97 -128 0 -26 24 -38 72 -38 47 0 48 1 49
33 l2 32 6 -35 c6 -34 8 -35 54 -38 66 -4 187 24 215 50 31 30 29 80 -5 123
-17 21 -31 31 -38 25 -17 -14 -76 -16 -73 -2 4 16 -26 62 -41 63 -28 1 32 21
69 24 19 1 42 -4 50 -11 19 -16 61 -21 80 -9 11 6 10 3 -2 -12 -10 -11 -18
-29 -18 -41 0 -23 14 -29 25 -12 3 6 11 10 17 10 6 0 4 -8 -5 -18 -34 -37 -16
-74 20 -40 18 17 20 24 11 36 -7 8 -12 33 -13 55 0 36 -4 43 -30 55 -52 23
-60 29 -57 47 3 16 0 15 -23 -4 -28 -22 -45 -20 -45 5 0 9 -10 14 -29 14 -33
0 -44 10 -32 28 7 11 40 10 60 -2 9 -6 61 41 61 54 0 16 -29 18 -47 5 -20 -16
-63 -20 -63 -6 0 10 31 23 46 20 5 -1 16 1 24 4 8 3 24 7 34 9 32 5 27 33 -6
35 -16 1 -26 -2 -23 -6 3 -5 -5 -7 -17 -3 -17 4 -20 2 -15 -12 6 -14 3 -16
-16 -11 -12 4 -32 13 -43 21 -19 11 -24 11 -38 -5 -9 -10 -16 -29 -16 -42 0
-29 -25 -68 -36 -56 -4 4 -2 13 4 19 17 17 15 48 -3 54 -11 5 -13 10 -5 19 20
24 -6 24 -59 0z m28 -40 c-2 -2 -17 0 -34 3 l-30 6 30 6 c26 5 45 -4 34 -15z"/>
<path d="M242 1482 c-28 -23 -32 -33 -32 -72 0 -68 12 -78 43 -36 32 41 47 78
47 112 0 31 -17 30 -58 -4z"/>
<path d="M2496 1472 c-4 -24 -6 -46 -2 -49 8 -8 18 42 14 68 -3 18 -6 13 -12
-19z"/>
<path d="M1268 1493 c-29 -7 -28 -33 2 -87 17 -29 30 -60 30 -70 0 -13 5 -16
23 -10 46 14 67 54 27 54 -11 0 -20 5 -20 11 0 5 -6 7 -12 3 -10 -6 -10 -4 -2
7 15 19 24 59 14 59 -5 0 -12 9 -15 20 -6 20 -14 22 -47 13z"/>
<path d="M1890 1490 c8 -5 22 -9 30 -9 10 0 8 3 -5 9 -27 12 -43 12 -25 0z"/>
<path d="M1878 1435 c-24 -52 46 -105 140 -105 39 0 53 5 69 24 24 27 21 36
-14 36 -14 0 -21 4 -18 10 3 6 1 10 -4 10 -6 0 -11 -8 -12 -17 0 -11 -5 -7
-11 11 -8 21 -7 30 2 36 8 5 7 9 -4 13 -23 9 -46 -2 -46 -22 0 -13 -2 -13 -9
-2 -7 11 -9 11 -14 0 -3 -8 -6 -4 -6 9 -1 33 -57 32 -73 -3z"/>
<path d="M1818 1412 c-8 -9 -18 -28 -21 -40 -5 -23 -5 -23 15 -6 26 25 40 51
29 58 -4 3 -15 -2 -23 -12z"/>
<path d="M152 1397 c-22 -23 -22 -24 -4 -40 30 -27 42 -21 42 23 0 46 -8 49
-38 17z"/>
<path d="M2174 1385 c-17 -13 -17 -14 -2 -15 9 0 20 5 23 11 11 17 0 20 -21 4z"/>
<path d="M2367 1383 c-13 -3 -17 -11 -14 -24 4 -17 3 -18 -9 -8 -8 6 -14 9
-14 7 0 -3 -19 -2 -42 2 -26 5 -49 4 -62 -4 -12 -6 -22 -11 -24 -12 -2 -1 21
-79 33 -106 5 -13 2 -18 -9 -18 -20 0 -20 -7 -2 -42 14 -27 14 -28 -8 -28 -29
0 -50 -24 -43 -49 6 -24 -41 -50 -54 -29 -9 14 -7 16 -29 -54 -6 -21 -16 -38
-22 -38 -6 0 -5 7 3 18 13 15 12 16 -3 3 -10 -7 -18 -22 -18 -33 0 -20 -36
-57 -56 -58 -6 0 -23 -9 -37 -21 l-26 -20 13 40 c8 21 12 42 9 45 -4 3 2 15
11 25 25 28 10 48 -17 24 l-21 -18 20 27 c10 15 25 28 32 28 6 0 12 4 12 9 0
4 11 6 24 4 13 -3 32 0 43 7 16 10 16 11 -4 7 -31 -7 -29 0 7 18 17 9 30 22
30 30 0 8 7 15 15 15 16 0 35 30 35 54 0 13 -4 14 -25 4 -18 -8 -29 -8 -36 -1
-7 7 2 12 30 17 23 3 41 10 41 15 0 5 3 16 6 25 4 11 1 16 -10 16 -9 0 -19 7
-22 15 -4 8 -13 15 -21 15 -8 0 -11 -5 -8 -10 4 -7 -2 -9 -17 -5 -21 5 -28 -1
-53 -47 -38 -72 -148 -218 -160 -214 -5 2 -24 -4 -42 -14 -26 -14 -30 -20 -20
-30 7 -8 2 -7 -14 2 -33 21 -106 13 -119 -12 -5 -10 -6 -20 -3 -24 3 -3 2 -6
-4 -6 -6 0 -14 -11 -17 -25 -7 -27 -36 -35 -36 -10 0 8 -5 15 -11 15 -5 0 -7
6 -3 13 5 8 4 9 -4 2 -5 -5 -22 -32 -37 -58 -30 -56 -28 -80 11 -122 14 -15
19 -25 10 -22 -10 4 -17 -3 -21 -24 -10 -44 -21 -35 -16 13 3 38 2 41 -13 29
-9 -7 -16 -23 -16 -34 0 -17 -3 -18 -12 -9 -9 9 -10 19 -1 42 9 25 9 30 -4 30
-9 0 -26 -12 -40 -26 -29 -31 -48 -27 -48 11 0 24 -6 31 -32 38 -30 9 -36 7
-73 -30 -45 -46 -49 -68 -21 -129 13 -28 30 -46 54 -58 35 -16 38 -16 74 3 55
27 131 48 208 56 66 7 71 10 121 61 37 36 64 55 88 60 27 5 36 11 37 28 1 17
2 17 6 4 6 -22 14 -22 61 -2 20 9 72 18 116 21 63 5 84 11 107 31 44 36 54 61
33 76 -12 10 -14 15 -5 20 9 6 9 11 0 22 -9 11 -8 14 5 14 9 0 18 11 22 28 16
79 39 119 95 172 32 30 65 71 73 90 18 44 31 130 20 129 -5 -1 -17 -3 -27 -6z
m-465 -546 c30 11 31 11 13 -3 -24 -18 -57 -15 -62 6 -4 13 -3 13 6 0 8 -12
16 -13 43 -3z m-62 -42 c-7 -8 -20 -15 -29 -15 -11 0 -8 5 9 14 33 19 35 19
20 1z"/>
<path d="M2118 1356 c-23 -17 -23 -26 1 -26 21 0 45 23 34 33 -9 10 -15 8 -35
-7z"/>
<path d="M0 1316 c0 -40 3 -46 24 -52 14 -3 34 -3 46 1 18 6 21 13 18 48 -3
42 -3 42 -45 45 l-43 3 0 -45z"/>
<path d="M1870 1350 c0 -5 5 -10 11 -10 5 0 7 5 4 10 -3 6 -8 10 -11 10 -2 0
-4 -4 -4 -10z"/>
<path d="M112 1310 c-1 -30 11 -40 23 -20 8 12 -3 50 -14 50 -4 0 -8 -13 -9
-30z"/>
<path d="M2177 1316 c-7 -18 4 -126 13 -126 7 0 4 130 -4 137 -2 2 -6 -3 -9
-11z"/>
<path d="M1334 1308 c-23 -10 -35 -47 -33 -102 0 -27 9 -37 66 -74 36 -24 71
-41 79 -38 15 6 84 96 83 111 0 11 -151 115 -165 114 -5 0 -19 -5 -30 -11z"/>
<path d="M2000 1288 c0 -20 1 -21 20 -3 11 10 20 20 20 22 0 1 -9 3 -20 3 -14
0 -20 -7 -20 -22z"/>
<path d="M1970 1289 c0 -5 5 -7 10 -4 6 3 10 8 10 11 0 2 -4 4 -10 4 -5 0 -10
-5 -10 -11z"/>
<path d="M268 1278 c-9 -7 -18 -25 -20 -39 -4 -23 1 -29 29 -43 42 -20 40 -20
53 3 8 15 5 28 -11 55 -23 40 -28 42 -51 24z"/>
<path d="M2200 1250 c0 -5 5 -10 11 -10 5 0 7 5 4 10 -3 6 -8 10 -11 10 -2 0
-4 -4 -4 -10z"/>
<path d="M1955 1239 c-10 -15 3 -25 16 -12 7 7 7 13 1 17 -6 3 -14 1 -17 -5z"/>
<path d="M370 1170 c0 -5 5 -10 10 -10 6 0 10 5 10 10 0 6 -4 10 -10 10 -5 0
-10 -4 -10 -10z"/>
<path d="M2196 1173 c-4 -5 -13 -8 -18 -8 -6 0 -13 -6 -16 -13 -3 -11 0 -12
16 -3 12 6 24 16 27 21 7 12 2 13 -9 3z"/>
<path d="M351 1153 c-1 -23 18 -47 52 -64 l22 -11 -20 20 c-30 31 -41 46 -48
62 -3 10 -6 8 -6 -7z"/>
<path d="M13 1153 c-7 -2 -13 -13 -13 -24 0 -18 1 -19 25 -3 38 25 29 44 -12
27z"/>
<path d="M70 1151 c0 -5 -16 -19 -35 -32 l-35 -24 0 -82 0 -83 48 7 c55 7 101
39 128 88 18 34 18 36 0 69 -22 42 -106 87 -106 57z"/>
<path d="M2341 1123 c-13 -20 -25 -54 -27 -75 -2 -22 -6 -45 -10 -51 -3 -7 6
2 20 18 30 34 50 90 44 123 -3 19 -5 18 -27 -15z"/>
<path d="M268 1130 c-48 -14 -49 -17 -24 -86 22 -61 50 -104 66 -104 11 0 33
155 25 179 -7 22 -22 25 -67 11z"/>
<path d="M1307 1118 c-15 -16 -27 -67 -31 -133 0 -11 -5 -23 -11 -27 -5 -4 2
-8 17 -8 17 0 31 7 38 20 6 11 7 20 3 20 -4 1 8 9 27 19 19 11 38 17 42 15 9
-6 58 17 58 27 0 6 -84 65 -115 81 -5 3 -18 -4 -28 -14z"/>
<path d="M2137 1103 c-4 -3 -7 -11 -7 -17 0 -6 5 -5 12 2 6 6 9 14 7 17 -3 3
-9 2 -12 -2z"/>
<path d="M2389 1047 c-15 -32 -24 -68 -21 -79 2 -10 8 -16 12 -11 15 17 41
104 38 125 -2 18 -9 10 -29 -35z"/>
<path d="M351 1023 c-6 -32 -14 -67 -17 -78 -4 -16 3 -24 31 -38 44 -21 72
-15 77 16 4 26 -21 109 -31 103 -4 -3 -7 5 -7 17 1 15 -5 22 -16 21 -10 -1
-15 2 -12 7 3 5 1 9 -4 9 -5 0 -15 -26 -21 -57z"/>
<path d="M2033 1033 c-14 -5 -18 -33 -5 -33 10 0 32 22 32 32 0 9 -8 9 -27 1z"/>
<path d="M163 944 c-49 -50 -52 -55 -42 -83 6 -17 9 -38 6 -48 -3 -12 -5 -10
-6 8 0 14 -8 34 -16 45 -13 17 -16 17 -27 3 -7 -8 -25 -23 -40 -33 -20 -13
-27 -14 -31 -4 -3 7 -6 -69 -6 -169 -1 -125 2 -183 10 -183 7 0 8 11 4 29 -3
17 -2 32 5 36 5 3 8 11 4 16 -3 6 3 13 14 16 13 3 18 11 15 19 -4 10 3 14 26
14 27 0 31 -3 31 -29 0 -31 -13 -47 -45 -53 -20 -3 -22 -20 -14 -119 1 -14 -8
-40 -20 -57 l-22 -32 33 -20 c18 -11 51 -25 73 -31 22 -6 47 -15 55 -20 8 -5
30 -16 49 -24 48 -22 115 -84 124 -117 5 -17 14 -28 25 -28 10 0 23 -5 28 -10
6 -6 33 -13 60 -15 27 -3 72 -10 99 -15 44 -8 40 -8 -30 -4 -52 3 -111 15
-170 35 -49 16 -75 28 -57 25 19 -3 32 -1 32 5 0 38 -74 97 -173 135 -73 29
-90 30 -57 4 14 -11 32 -17 41 -15 8 3 26 -6 39 -20 28 -30 22 -33 -9 -5 -18
15 -26 16 -36 7 -11 -10 -8 -17 18 -37 17 -14 38 -33 46 -42 9 -10 25 -18 36
-19 19 0 19 -1 1 -8 -17 -6 -15 -10 15 -41 l34 -35 -30 19 c-16 10 -39 27 -51
37 -11 11 -24 16 -28 12 -4 -4 -4 0 -1 8 4 11 -7 25 -32 44 -21 16 -42 35 -46
42 -4 7 -12 13 -17 13 -15 0 -12 -48 4 -57 29 -17 105 -86 110 -100 3 -8 -12
-1 -33 16 -24 19 -45 29 -55 25 -19 -7 -21 -20 -3 -31 18 -11 -64 -23 -85 -12
-15 8 -18 5 -18 -15 l0 -24 388 -1 389 0 -2 21 c-2 31 -22 34 -44 7 -11 -14
-23 -19 -30 -14 -11 6 -10 9 0 16 11 8 7 15 -16 35 -45 38 -72 46 -114 34 -48
-13 -92 -13 -71 0 13 8 12 11 -5 24 -32 24 -155 86 -169 86 -8 0 -27 7 -42 15
-16 8 -40 15 -54 16 -16 1 -19 3 -8 6 10 2 15 10 11 19 -3 8 1 21 8 30 11 14
10 18 -6 30 -18 13 -18 14 6 14 l24 0 -25 20 c-14 10 -21 22 -17 26 4 4 7 2 7
-5 0 -7 5 -9 10 -6 6 4 7 23 4 45 -5 33 -3 39 16 45 19 6 21 12 16 39 l-5 31
18 -36 c10 -20 26 -47 35 -60 18 -24 18 -24 11 -1 -4 13 -2 22 4 22 6 0 11 6
11 14 0 8 11 28 25 44 36 43 32 52 -24 52 -35 0 -51 4 -55 16 -4 11 1 18 14
21 12 3 19 12 18 22 -2 9 7 20 20 26 14 6 32 35 52 82 17 39 30 74 30 77 0 3
-31 23 -69 45 -61 36 -105 76 -136 123 -8 13 -19 7 -62 -38z m-8 -235 c5 -8
33 -46 62 -85 29 -39 53 -74 53 -79 0 -4 -31 34 -70 84 -55 72 -70 99 -69 124
l1 32 7 -31 c4 -17 12 -37 16 -45z m178 -524 c34 -14 109 -95 88 -95 -6 0 -17
13 -26 30 -9 17 -35 40 -63 54 -53 28 -53 34 1 11z m-43 -71 c0 -9 -80 51 -80
59 0 5 18 -6 40 -23 22 -17 40 -34 40 -36z m361 -71 c12 -15 12 -16 -4 -10
-10 4 -23 7 -28 7 -6 0 -7 5 -4 10 9 15 21 12 36 -7z"/>
<path d="M1488 954 c-34 -18 -35 -34 -5 -63 l24 -22 27 40 c40 57 17 79 -46
45z"/>
<path d="M2318 924 c-46 -56 -47 -66 -9 -53 40 14 53 32 49 68 l-3 31 -37 -46z"/>
<path d="M1406 895 c-21 -21 -24 -30 -16 -45 13 -24 29 -29 64 -19 46 13 48
23 12 58 l-34 33 -26 -27z"/>
<path d="M7 883 c7 -2 19 -2 26 0 6 3 1 5 -13 5 -14 0 -19 -2 -13 -5z"/>
<path d="M2326 838 c-10 -15 -16 -40 -15 -55 4 -44 -9 -70 -52 -103 -39 -31
-49 -50 -28 -50 26 0 77 68 98 132 27 81 25 118 -3 76z"/>
<path d="M2282 828 c-14 -18 -36 -97 -29 -104 12 -13 36 17 35 44 -1 15 2 37
6 50 8 25 4 28 -12 10z"/>
<path d="M2541 802 c-11 -31 -10 -43 2 -72 l15 -35 1 73 c1 39 -1 72 -2 72 -2
0 -9 -17 -16 -38z"/>
<path d="M1490 815 c-8 -9 -8 -15 -2 -15 12 0 26 19 19 26 -2 2 -10 -2 -17
-11z"/>
<path d="M425 755 c-31 -70 -32 -121 -2 -157 16 -21 28 -26 45 -22 12 4 22 10
22 15 0 5 7 9 15 9 8 0 15 5 15 11 0 6 9 9 20 6 10 -3 26 0 35 7 21 15 12 75
-15 104 -10 11 -17 22 -14 24 2 3 -19 17 -46 32 l-50 27 -25 -56z"/>
<path d="M2198 765 c-24 -26 -34 -45 -29 -54 10 -15 34 6 57 51 24 46 13 47
-28 3z"/>
<path d="M2140 760 c-25 -16 -51 -30 -59 -30 -8 0 -12 -3 -8 -6 9 -10 70 14
102 41 42 34 19 31 -35 -5z"/>
<path d="M1917 709 c-9 -5 -21 -7 -26 -4 -6 3 -24 -13 -42 -35 -35 -43 -57
-53 -173 -73 -40 -8 -72 -19 -74 -26 -3 -10 2 -12 20 -8 14 4 58 11 99 17 78
11 96 20 150 70 19 18 48 41 64 51 31 19 14 27 -18 8z"/>
<path d="M1810 690 c0 -11 2 -20 5 -20 2 0 9 9 15 20 9 16 8 20 -5 20 -8 0
-15 -9 -15 -20z"/>
<path d="M1995 700 c-3 -6 1 -7 9 -4 18 7 21 14 7 14 -6 0 -13 -4 -16 -10z"/>
<path d="M2118 703 c7 -3 16 -2 19 1 4 3 -2 6 -13 5 -11 0 -14 -3 -6 -6z"/>
<path d="M1757 684 c-9 -10 2 -24 19 -24 8 0 14 7 14 15 0 15 -21 21 -33 9z"/>
<path d="M1992 670 c-18 -4 -34 -9 -36 -11 -1 -2 -13 -19 -25 -37 -27 -38 -41
-36 -16 2 10 14 13 26 7 26 -18 0 -34 -30 -29 -52 7 -27 -28 -69 -49 -61 -8 3
-22 2 -31 -2 -10 -4 -34 -7 -53 -6 -39 2 -181 -26 -190 -37 -3 -4 -9 -7 -15
-8 -45 -2 -205 -63 -233 -87 -15 -14 -20 -27 -16 -41 4 -16 3 -17 -4 -7 -6 8
-17 11 -27 7 -14 -5 -15 -9 -5 -20 9 -12 7 -17 -9 -25 -13 -7 -18 -17 -14 -28
10 -27 -21 -10 -35 20 -17 34 -39 25 -52 -21 -5 -21 -10 -42 -10 -49 0 -6 -6
-14 -12 -16 -7 -3 2 -6 20 -6 37 -1 51 -23 31 -47 -10 -13 -10 -17 1 -24 9 -6
25 1 47 21 40 35 67 39 30 5 -38 -35 -27 -55 26 -49 39 4 265 106 312 140 20
15 19 15 -2 8 -29 -8 -30 6 -2 23 12 8 18 9 15 4 -8 -14 15 -21 34 -11 8 5 34
13 57 19 23 6 48 16 55 23 7 6 22 13 33 15 11 2 34 18 51 36 35 36 99 66 143
66 22 0 39 11 70 47 23 25 44 58 47 72 4 14 17 45 30 67 l23 41 -52 7 c-61 7
-71 7 -115 -4z m-319 -309 c-3 -11 -15 -28 -26 -38 -19 -16 -20 -16 -8 0 11
14 11 20 0 35 -13 15 -12 16 2 4 14 -10 18 -10 23 3 8 22 15 19 9 -4z m-115
-102 c-2 -6 -31 -22 -63 -34 -33 -13 -91 -37 -130 -54 -38 -17 -77 -30 -85
-31 -14 0 115 65 152 77 10 3 16 8 14 12 -3 4 11 8 31 8 19 1 43 8 51 17 19
19 35 21 30 5z m-195 -43 c3 -8 -2 -16 -14 -19 -11 -3 -17 -1 -13 5 4 6 -6 8
-27 4 l-34 -6 35 14 c45 19 47 19 53 2z"/>
<path d="M2173 633 c-3 -10 -8 -22 -10 -28 -3 -5 3 -1 11 9 16 20 21 36 11 36
-3 0 -8 -8 -12 -17z"/>
<path d="M1133 594 c-30 -32 -43 -55 -43 -76 0 -33 -5 -34 94 26 33 20 64 36
70 36 5 0 -29 -24 -75 -53 -71 -44 -89 -61 -112 -105 l-29 -53 54 7 c70 9 90
20 177 98 40 36 79 66 85 66 21 1 -39 40 -61 40 -13 0 -22 5 -20 12 2 13 -33
33 -73 42 -21 5 -33 -2 -67 -40z"/>
<path d="M1854 596 c-4 -10 -2 -22 4 -28 8 -8 13 -7 18 6 4 10 2 22 -4 28 -8
8 -13 7 -18 -6z"/>
<path d="M690 585 c0 -8 -4 -15 -10 -15 -5 0 -10 -7 -10 -15 0 -18 16 -20 23
-2 4 10 6 10 6 0 1 -18 26 -16 41 2 10 12 10 15 -4 15 -9 0 -16 7 -16 15 0 8
-7 15 -15 15 -8 0 -15 -7 -15 -15z"/>
<path d="M1825 580 c-3 -5 -1 -10 4 -10 6 0 11 5 11 10 0 6 -2 10 -4 10 -3 0
-8 -4 -11 -10z"/>
<path d="M1530 570 c0 -5 9 -10 20 -10 11 0 20 5 20 10 0 6 -9 10 -20 10 -11
0 -20 -4 -20 -10z"/>
<path d="M1708 563 c-46 -3 -70 -9 -80 -20 -11 -15 -11 -16 7 -9 11 4 57 10
103 13 50 4 78 9 70 14 -7 5 -17 8 -23 7 -5 -1 -40 -3 -77 -5z"/>
<path d="M2148 533 c-41 -63 -51 -83 -35 -77 25 9 83 114 63 114 -2 0 -14 -17
-28 -37z"/>
<path d="M1485 530 c-3 -5 3 -10 14 -10 12 0 21 5 21 10 0 6 -6 10 -14 10 -8
0 -18 -4 -21 -10z"/>
<path d="M382 508 c-14 -16 -18 -28 -12 -39 6 -9 4 -24 -5 -40 -8 -13 -20 -38
-28 -55 -9 -18 -23 -37 -34 -43 -16 -9 -16 -12 -3 -21 8 -6 23 -8 33 -6 9 2
17 0 17 -5 0 -5 -4 -9 -10 -9 -5 0 -10 -6 -10 -14 0 -15 57 -46 86 -46 9 0 31
-10 48 -23 17 -13 46 -30 64 -38 18 -8 32 -21 32 -31 0 -21 16 -32 25 -17 13
20 -16 55 -60 75 -48 21 -58 33 -44 55 7 12 9 12 9 -1 0 -12 17 -16 78 -17 61
-2 87 -8 126 -29 59 -33 84 -56 78 -75 -4 -11 -2 -12 9 -2 18 17 -2 52 -44 77
l-32 19 30 13 c17 7 49 16 73 20 l42 6 0 49 c0 45 -2 49 -24 49 -14 0 -28 5
-31 10 -4 6 7 10 24 10 20 0 31 5 31 14 0 20 -27 39 -46 32 -9 -4 -23 -1 -31
6 -11 9 -16 9 -24 -3 -16 -25 -10 -47 14 -52 17 -3 15 -5 -8 -6 -17 0 -36 -6
-42 -12 -9 -9 -18 -6 -37 8 -14 11 -22 23 -19 27 10 10 -17 7 -40 -5 -12 -6
-41 -30 -64 -52 -24 -23 -43 -36 -43 -29 0 7 4 12 8 12 29 0 86 139 74 182 -7
27 -62 25 -69 -2 -3 -12 -18 -27 -34 -36 -32 -16 -39 -53 -14 -74 21 -18 19
-33 -4 -21 -10 6 -22 22 -25 36 -4 15 -17 30 -32 36 -20 7 -24 12 -15 22 8 10
7 17 -1 25 -8 8 -7 13 5 18 9 3 17 10 17 15 0 16 -16 10 -38 -13z"/>
<path d="M1020 513 c-24 -7 -56 -14 -70 -15 -23 -2 -25 -6 -25 -44 1 -51 26
-84 66 -84 23 0 33 9 54 44 18 30 25 56 23 78 l-3 34 -45 -13z"/>
<path d="M603 458 c-7 -24 -15 -51 -19 -61 -6 -18 -4 -18 34 2 52 26 63 57 31
82 -13 10 -26 19 -29 19 -3 0 -11 -19 -17 -42z"/>
<path d="M0 403 c0 -28 3 -34 10 -23 13 20 13 60 0 60 -5 0 -10 -17 -10 -37z"/>
<path d="M1945 420 c-8 -13 5 -13 25 0 13 8 13 10 -2 10 -9 0 -20 -4 -23 -10z"/>
<path d="M275 370 c3 -5 8 -10 11 -10 2 0 4 5 4 10 0 6 -5 10 -11 10 -5 0 -7
-4 -4 -10z"/>
<path d="M862 313 c2 -32 7 -47 16 -46 6 2 12 -6 12 -17 0 -13 5 -18 15 -14 8
4 15 2 15 -4 0 -6 -6 -13 -12 -15 -13 -5 46 -67 63 -67 20 0 7 30 -14 35 -13
4 -23 14 -24 26 -2 25 2 24 35 -6 15 -14 33 -23 40 -20 6 2 12 -2 12 -9 0 -20
27 -27 34 -10 9 22 9 22 -28 39 -19 9 -40 13 -47 9 -9 -5 -10 -2 -6 9 3 9 1
18 -6 20 -7 2 0 3 14 1 19 -2 35 6 58 30 17 17 31 36 31 40 0 4 -27 5 -59 1
-46 -5 -67 -3 -95 10 -20 10 -36 21 -36 26 0 5 -5 9 -11 9 -6 0 -9 -19 -7 -47z
m78 -64 c0 -11 -3 -11 -24 -3 -23 9 -20 23 4 17 11 -3 20 -9 20 -14z"/>
<path d="M240 270 c0 -5 4 -10 9 -10 6 0 13 5 16 10 3 6 -1 10 -9 10 -9 0 -16
-4 -16 -10z"/>
<path d="M282 268 c-17 -17 -15 -28 6 -28 10 0 22 -4 28 -8 5 -5 28 -15 52
-22 23 -7 42 -17 42 -22 0 -4 5 -8 11 -8 7 0 34 -16 62 -36 37 -27 52 -33 58
-23 11 18 4 26 -44 50 -23 12 -49 27 -57 33 -8 7 -35 18 -60 25 -24 7 -51 22
-58 32 -15 22 -23 24 -40 7z"/>
<path d="M0 250 c0 -13 7 -20 20 -20 23 0 26 10 8 28 -18 18 -28 15 -28 -8z"/>
<path d="M809 237 c-7 -7 -26 -11 -43 -9 -31 5 -31 5 -12 -17 11 -11 24 -21
29 -21 5 0 16 -8 24 -17 12 -16 13 -15 7 9 -3 14 -1 36 6 47 12 24 7 28 -11 8z"/>
<path d="M1470 174 c-69 -35 -131 -64 -137 -64 -7 0 -13 -4 -13 -10 0 -9 50
-15 93 -12 10 1 16 -2 12 -7 -3 -6 -27 -10 -53 -10 -26 0 -63 -5 -82 -11 -19
-5 -50 -10 -68 -10 -18 0 -43 -5 -55 -12 -12 -6 -54 -12 -94 -13 -40 0 -75 -4
-79 -8 -4 -4 -12 3 -19 16 -6 12 -17 21 -23 19 -7 -1 -12 8 -12 21 0 23 -17
47 -32 47 -14 0 -9 -31 10 -58 10 -15 22 -35 25 -44 6 -16 24 -18 178 -18 153
0 174 2 198 19 18 13 32 17 42 10 11 -7 10 -9 -6 -9 -11 0 -27 -5 -35 -10 -10
-6 40 -9 150 -8 125 1 170 5 188 16 12 8 22 18 22 22 0 13 -119 1 -150 -15
-39 -20 -48 -19 -19 3 38 28 75 42 86 31 18 -18 117 5 156 36 45 36 41 43 -11
16 -30 -15 -65 -21 -139 -24 -95 -4 -120 -11 -168 -47 l-20 -15 20 24 c11 14
28 33 37 43 10 9 20 28 23 41 7 26 76 72 90 59 5 -4 5 -1 1 6 -6 11 5 17 27
13 4 0 7 6 7 14 0 23 -16 18 -150 -51z m10 -39 c-7 -9 -15 -13 -18 -10 -3 2 1
11 8 20 7 9 15 13 18 10 3 -2 -1 -11 -8 -20z"/>
<path d="M510 221 c0 -5 10 -11 23 -15 12 -3 37 -19 54 -36 18 -18 37 -29 43
-25 15 9 12 25 -5 25 -8 0 -12 6 -9 13 3 8 -10 20 -31 30 -39 18 -75 22 -75 8z"/>
<path d="M841 213 c0 -10 4 -26 8 -36 6 -16 9 -16 18 -5 7 8 7 21 2 36 -10 26
-29 30 -28 5z"/>
<path d="M0 185 c0 -36 39 -79 83 -89 37 -9 34 -2 -10 29 -21 14 -32 25 -25
25 7 0 12 14 12 33 0 31 -3 34 -30 34 -27 0 -30 -4 -30 -32z"/>
<path d="M631 196 c20 -20 49 -26 49 -9 0 11 -35 32 -54 33 -16 0 -16 -2 5
-24z"/>
<path d="M1056 209 c7 -11 51 -12 58 -1 3 4 -11 9 -30 9 -18 1 -31 -3 -28 -8z"/>
<path d="M1670 194 c-14 -9 -35 -29 -48 -45 l-24 -29 24 0 c15 1 37 17 61 45
39 45 33 58 -13 29z"/>
<path d="M1106 191 c-4 -5 0 -12 6 -15 7 -3 1 -3 -14 0 -22 5 -28 2 -28 -10 0
-15 36 -36 60 -36 17 0 62 49 55 59 -8 13 -72 14 -79 2z"/>
<path d="M671 166 c-14 -16 -8 -21 36 -30 39 -9 51 7 21 28 -28 20 -42 20 -57
2z"/>
<path d="M1537 158 c-15 -11 -27 -27 -27 -36 0 -12 9 -8 32 15 38 38 35 50 -5
21z"/>
<path d="M1000 145 c0 -16 27 -32 37 -21 7 7 -16 36 -28 36 -5 0 -9 -7 -9 -15z"/>
<path d="M637 133 c-8 -8 21 -43 36 -43 6 0 21 -9 33 -21 28 -26 41 -19 42 21
1 32 -7 37 -26 18 -9 -9 -12 -9 -12 0 0 7 -10 12 -23 12 -13 0 -28 5 -33 10
-6 6 -13 7 -17 3z"/>
<path d="M843 116 c7 -14 13 -23 15 -21 7 6 -9 45 -18 45 -4 0 -3 -11 3 -24z"/>
<path d="M930 130 c0 -5 6 -13 13 -17 6 -4 20 -25 29 -45 21 -45 38 -49 38 -9
0 42 -10 61 -31 61 -10 0 -19 5 -19 10 0 6 -7 10 -15 10 -8 0 -15 -4 -15 -10z"/>
<path d="M1063 133 c4 -3 -1 -12 -11 -19 -27 -20 -8 -27 57 -19 45 5 61 11 61
22 0 11 -5 13 -17 8 -24 -10 -67 -7 -71 5 -2 6 -9 10 -14 10 -6 0 -8 -3 -5 -7z"/>
<path d="M786 109 c-30 -44 -14 -85 19 -49 12 14 14 20 5 20 -10 0 -10 3 0 15
9 11 10 19 3 26 -7 7 -16 4 -27 -12z"/>
<path d="M1185 98 c-11 -7 -51 -14 -90 -17 -54 -5 -70 -10 -73 -23 -3 -14 6
-16 65 -13 79 4 223 34 223 46 0 5 -11 9 -24 9 -13 0 -36 2 -52 5 -16 3 -38 0
-49 -7z"/>
<path d="M0 77 c0 -17 31 -27 60 -20 32 9 17 28 -23 31 -27 2 -37 -1 -37 -11z"/>
<path d="M886 48 c-10 -39 -7 -48 19 -48 31 0 34 29 6 54 -17 16 -19 16 -25
-6z"/>
<path d="M802 48 c-21 -21 -15 -50 9 -46 15 2 23 11 25 31 3 29 -13 36 -34 15z"/>
<path d="M850 25 c0 -14 4 -25 9 -25 4 0 6 11 3 25 -6 32 -12 32 -12 0z"/>
</g>
</svg>